{
    "accessors" : [
        {
            "bufferView" : 0,
            "componentType" : 5123,
            "count" : 348,
            "max" : [
                128
            ],
            "min" : [
                0
            ],
            "type" : "SCALAR"
        },
        {
            "bufferView" : 1,
            "componentType" : 5126,
            "count" : 129,
            "max" : [
                1.0,
                0.44999998807907104,
                0.20000000298023224
            ],
            "min" : [
                -1.0,
                2.2351741790771484e-08,
                -0.20000000298023224
            ],
            "type" : "VEC3"
        },
        {
            "bufferView" : 2,
            "componentType" : 5126,
            "count" : 129,
            "max" : [
                0.9862971901893616,
                0.904507577419281,
                0.8099612593650818
            ],
            "min" : [
                -0.9862971901893616,
                -0.904507577419281,
                -0.7700430154800415
            ],
            "type" : "VEC3"
        },
        {
            "bufferView" : 3,
            "componentType" : 5126,
            "count" : 129,
            "max" : [
                0.9620651006698608,
                0.988350510597229,
                0.9534621834754944,
                1.0
            ],
            "min" : [
                -0.9534621238708496,
                -0.9968774914741516,
                -0.9534622430801392,
                -1.0
            ],
            "type" : "VEC4"
        },
        {
            "bufferView" : 4,
            "componentType" : 5126,
            "count" : 129,
            "max" : [
                0.9997220635414124,
                0.9914625491946936
            ],
            "min" : [
                0.00012551143299788237,
                0.0052964091300964355
            ],
            "type" : "VEC2"
        },
        {
            "bufferView" : 5,
            "componentType" : 5123,
            "count" : 480,
            "max" : [
                163
            ],
            "min" : [
                0
            ],
            "type" : "SCALAR"
        },
        {
            "bufferView" : 6,
            "componentType" : 5126,
            "count" : 164,
            "max" : [
                1.0,
                0.44999998807907104,
                0.20000000298023224
            ],
            "min" : [
                -1.0,
                2.2351741790771484e-08,
                -0.20000000298023224
            ],
            "type" : "VEC3"
        },
        {
            "bufferView" : 7,
            "componentType" : 5126,
            "count" : 164,
            "max" : [
                0.904507577419281,
                0.904507577419281,
                0.6827296018600464
            ],
            "min" : [
                -0.904507577419281,
                -0.904507577419281,
                -0.6827296018600464
            ],
            "type" : "VEC3"
        },
        {
            "bufferView" : 8,
            "componentType" : 5126,
            "count" : 164,
            "max" : [
                0.9534627199172974,
                0.9466951489448547,
                0.9534621834754944,
                1.0
            ],
            "min" : [
                -0.9713759422302246,
                -0.9534626603126526,
                -0.9534622430801392,
                1.0
            ],
            "type" : "VEC4"
        },
        {
            "bufferView" : 9,
            "componentType" : 5126,
            "count" : 164,
            "max" : [
                0.9997220635414124,
                0.9914625491946936
            ],
            "min" : [
                0.00012551143299788237,
                0.0052964091300964355
            ],
            "type" : "VEC2"
        },
        {
            "bufferView" : 10,
            "componentType" : 5123,
            "count" : 480,
            "max" : [
                163
            ],
            "min" : [
                0
            ],
            "type" : "SCALAR"
        },
        {
            "bufferView" : 11,
            "componentType" : 5126,
            "count" : 164,
            "max" : [
                1.0,
                0.7599999904632568,
                0.44999998807907104
            ],
            "min" : [
                -1.0,
                2.3697882767237388e-08,
                -0.44999998807907104
            ],
            "type" : "VEC3"
        },
        {
            "bufferView" : 12,
            "componentType" : 5126,
            "count" : 164,
            "max" : [
                0.904507577419281,
                0.904507577419281,
                0.6563615798950195
            ],
            "min" : [
                -0.904507577419281,
                -0.904507577419281,
                -0.6563615798950195
            ],
            "type" : "VEC3"
        },
        {
            "bufferView" : 13,
            "componentType" : 5126,
            "count" : 164,
            "max" : [
                0.9534627199172974,
                0.9534626007080078,
                0.9534626007080078,
                1.0
            ],
            "min" : [
                -0.9713764786720276,
                -0.9466956257820129,
                -0.9534626007080078,
                1.0
            ],
            "type" : "VEC4"
        },
        {
            "bufferView" : 14,
            "componentType" : 5126,
            "count" : 164,
            "max" : [
                0.9856264591217041,
                0.9897479983046651
            ],
            "min" : [
                0.008564449846744537,
                0.00875002145767212
            ],
            "type" : "VEC2"
        }
    ],
    "asset" : {
        "generator" : "Khronos Blender glTF 2.0 exporter",
        "version" : "2.0"
    },
    "bufferViews" : [
        {
            "buffer" : 0,
            "byteLength" : 696,
            "byteOffset" : 0,
            "target" : 34963
        },
        {
            "buffer" : 0,
            "byteLength" : 1548,
            "byteOffset" : 696,
            "target" : 34962
        },
        {
            "buffer" : 0,
            "byteLength" : 1548,
            "byteOffset" : 2244,
            "target" : 34962
        },
        {
            "buffer" : 0,
            "byteLength" : 2064,
            "byteOffset" : 3792,
            "target" : 34962
        },
        {
            "buffer" : 0,
            "byteLength" : 1032,
            "byteOffset" : 5856,
            "target" : 34962
        },
        {
            "buffer" : 0,
            "byteLength" : 960,
            "byteOffset" : 6888,
            "target" : 34963
        },
        {
            "buffer" : 0,
            "byteLength" : 1968,
            "byteOffset" : 7848,
            "target" : 34962
        },
        {
            "buffer" : 0,
            "byteLength" : 1968,
            "byteOffset" : 9816,
            "target" : 34962
        },
        {
            "buffer" : 0,
            "byteLength" : 2624,
            "byteOffset" : 11784,
            "target" : 34962
        },
        {
            "buffer" : 0,
            "byteLength" : 1312,
            "byteOffset" : 14408,
            "target" : 34962
        },
        {
            "buffer" : 0,
            "byteLength" : 960,
            "byteOffset" : 15720,
            "target" : 34963
        },
        {
            "buffer" : 0,
            "byteLength" : 1968,
            "byteOffset" : 16680,
            "target" : 34962
        },
        {
            "buffer" : 0,
            "byteLength" : 1968,
            "byteOffset" : 18648,
            "target" : 34962
        },
        {
            "buffer" : 0,
            "byteLength" : 2624,
            "byteOffset" : 20616,
            "target" : 34962
        },
        {
            "buffer" : 0,
            "byteLength" : 1312,
            "byteOffset" : 23240,
            "target" : 34962
        }
    ],
    "buffers" : [
        {
            "byteLength" : 24552,
            "uri" : "bench.bin"
        }
    ],
    "images" : [
        {
            "name" : "wooden_bench_albedo.png",
            "uri" : "wooden_bench_albedo.png.png"
        },
        {
            "name" : "wooden_bench_AO",
            "uri" : "wooden_bench_AO.png"
        },
        {
            "name" : "wooden_bench_normal.png",
            "uri" : "wooden_bench_normal.png.png"
        },
        {
            "name" : "wooden_table_albedo.png",
            "uri" : "wooden_table_albedo.png.png"
        },
        {
            "name" : "wooden_table_AO.png",
            "uri" : "wooden_table_AO.png.png"
        },
        {
            "name" : "wooden_table_normal.png",
            "uri" : "wooden_table_normal.png.png"
        }
    ],
    "materials" : [
        {
            "name" : "wooden_bench",
            "normalTexture" : {
                "index" : 2
            },
            "pbrMetallicRoughness" : {
                "baseColorFactor" : [
                    0.6400000190734865,
                    0.6400000190734865,
                    0.6400000190734865,
                    1.0
                ],
                "baseColorTexture" : {
                    "index" : 1
                },
                "metallicFactor" : 0.0
            }
        },
        {
            "name" : "wooden_table",
            "normalTexture" : {
                "index" : 5
            },
            "pbrMetallicRoughness" : {
                "baseColorFactor" : [
                    0.6400000190734865,
                    0.6400000190734865,
                    0.6400000190734865,
                    1.0
                ],
                "baseColorTexture" : {
                    "index" : 4
                },
                "metallicFactor" : 0.0
            }
        }
    ],
    "meshes" : [
        {
            "name" : "Cube.003",
            "primitives" : [
                {
                    "attributes" : {
                        "NORMAL" : 2,
                        "POSITION" : 1,
                        "TANGENT" : 3,
                        "TEXCOORD_0" : 4
                    },
                    "indices" : 0,
                    "material" : 0
                }
            ]
        },
        {
            "name" : "Cube.000",
            "primitives" : [
                {
                    "attributes" : {
                        "NORMAL" : 7,
                        "POSITION" : 6,
                        "TANGENT" : 8,
                        "TEXCOORD_0" : 9
                    },
                    "indices" : 5,
                    "material" : 0
                }
            ]
        },
        {
            "name" : "Cube.004",
            "primitives" : [
                {
                    "attributes" : {
                        "NORMAL" : 12,
                        "POSITION" : 11,
                        "TANGENT" : 13,
                        "TEXCOORD_0" : 14
                    },
                    "indices" : 10,
                    "material" : 1
                }
            ]
        }
    ],
    "nodes" : [
        {
            "mesh" : 0,
            "name" : "wooden_bench",
            "rotation" : [
                -8.146033536604591e-08,
                0.0,
                -0.0,
                1.0
            ],
            "scale" : [
                0.7645721435546875,
                0.7645721435546875,
                0.7645721435546875
            ],
            "translation" : [
                0.0,
                0.0,
                0.554987907409668
            ]
        },
        {
            "mesh" : 1,
            "name" : "wooden_bench.001",
            "rotation" : [
                7.349992027494683e-15,
                1.0,
                -3.774895063202166e-08,
                1.9470718370939721e-07
            ],
            "scale" : [
                0.7645721435546875,
                0.7645721435546875,
                0.7645721435546875
            ],
            "translation" : [
                0.0,
                0.0,
                -0.5612454414367676
            ]
        },
        {
            "mesh" : 2,
            "name" : "wooden_table",
            "rotation" : [
                -8.146033536604591e-08,
                0.0,
                -0.0,
                1.0
            ],
            "scale" : [
                0.7645721435546875,
                0.7645721435546875,
                0.7645721435546875
            ],
            "translation" : [
                0.0,
                0.0,
                -0.0005328831030055881
            ]
        }
    ],
    "samplers" : [
        {}
    ],
    "scene" : 0,
    "scenes" : [
        {
            "name" : "Scene",
            "nodes" : [
                2,
                0,
                1
            ]
        }
    ],
    "textures" : [
        {
            "sampler" : 0,
            "source" : 0
        },
        {
            "sampler" : 0,
            "source" : 1
        },
        {
            "sampler" : 0,
            "source" : 2
        },
        {
            "sampler" : 0,
            "source" : 3
        },
        {
            "sampler" : 0,
            "source" : 4
        },
        {
            "sampler" : 0,
            "source" : 5
        }
    ]
}
