{
    "accessors" : [
        {
            "bufferView" : 0,
            "componentType" : 5123,
            "count" : 1896,
            "max" : [
                1335
            ],
            "min" : [
                0
            ],
            "type" : "SCALAR"
        },
        {
            "bufferView" : 1,
            "componentType" : 5126,
            "count" : 1336,
            "max" : [
                27.728614807128906,
                -7.015995502471924,
                0.19090063869953156
            ],
            "min" : [
                -1.9309749603271484,
                -57.70729064941406,
                -311.1910400390625
            ],
            "type" : "VEC3"
        },
        {
            "bufferView" : 2,
            "componentType" : 5126,
            "count" : 1336,
            "max" : [
                0.9965341687202454,
                0.994882345199585,
                0.998555600643158
            ],
            "min" : [
                -0.99805748462677,
                -0.996184766292572,
                -0.977310299873352
            ],
            "type" : "VEC3"
        },
        {
            "bufferView" : 3,
            "componentType" : 5126,
            "count" : 1336,
            "max" : [
                0.4631648063659668,
                0.9763967916369438
            ],
            "min" : [
                0.05998627841472626,
                0.010586082935333252
            ],
            "type" : "VEC2"
        },
        {
            "bufferView" : 4,
            "componentType" : 5123,
            "count" : 72,
            "max" : [
                47
            ],
            "min" : [
                0
            ],
            "type" : "SCALAR"
        },
        {
            "bufferView" : 5,
            "componentType" : 5126,
            "count" : 48,
            "max" : [
                -65.7939453125,
                23.679351806640625,
                0.09052176773548126
            ],
            "min" : [
                -205.71615600585938,
                -115.41639709472656,
                -204.8277130126953
            ],
            "type" : "VEC3"
        },
        {
            "bufferView" : 6,
            "componentType" : 5126,
            "count" : 48,
            "max" : [
                0.9494967460632324,
                0.9494968056678772,
                1.0
            ],
            "min" : [
                -0.9494967460632324,
                -0.949496865272522,
                -1.0
            ],
            "type" : "VEC3"
        },
        {
            "bufferView" : 7,
            "componentType" : 5126,
            "count" : 48,
            "max" : [
                0.9845613837242126,
                0.4981372356414795
            ],
            "min" : [
                0.019414246082305908,
                0.02289903163909912
            ],
            "type" : "VEC2"
        },
        {
            "bufferView" : 8,
            "componentType" : 5123,
            "count" : 4500,
            "max" : [
                4496
            ],
            "min" : [
                0
            ],
            "type" : "SCALAR"
        },
        {
            "bufferView" : 9,
            "componentType" : 5126,
            "count" : 4497,
            "max" : [
                -21.44643783569336,
                -99.10372161865234,
                4.0976818127091974e-05
            ],
            "min" : [
                -214.0400390625,
                -215.133544921875,
                -158.07699584960938
            ],
            "type" : "VEC3"
        },
        {
            "bufferView" : 10,
            "componentType" : 5126,
            "count" : 4497,
            "max" : [
                0.9800658226013184,
                0.9800655841827393,
                0.9986357688903809
            ],
            "min" : [
                -0.9800659418106079,
                -0.9800658226013184,
                -1.0
            ],
            "type" : "VEC3"
        },
        {
            "bufferView" : 11,
            "componentType" : 5126,
            "count" : 4497,
            "max" : [
                0.9566671848297119,
                0.9357013553380966
            ],
            "min" : [
                0.03605294227600098,
                0.17868804931640625
            ],
            "type" : "VEC2"
        },
        {
            "bufferView" : 12,
            "componentType" : 5123,
            "count" : 3048,
            "max" : [
                2103
            ],
            "min" : [
                0
            ],
            "type" : "SCALAR"
        },
        {
            "bufferView" : 13,
            "componentType" : 5126,
            "count" : 2104,
            "max" : [
                44.598907470703125,
                58.291709899902344,
                9.17993450164795
            ],
            "min" : [
                -139.41519165039062,
                -202.70858764648438,
                -190.35659790039062
            ],
            "type" : "VEC3"
        },
        {
            "bufferView" : 14,
            "componentType" : 5126,
            "count" : 2104,
            "max" : [
                0.9899203777313232,
                0.9995880126953125,
                0.988888680934906
            ],
            "min" : [
                -0.9880375862121582,
                -0.9998753070831299,
                -0.9965642690658569
            ],
            "type" : "VEC3"
        },
        {
            "bufferView" : 15,
            "componentType" : 5126,
            "count" : 2104,
            "max" : [
                0.9825630187988281,
                0.9934643805027008
            ],
            "min" : [
                0.005329161882400513,
                0.01676255464553833
            ],
            "type" : "VEC2"
        },
        {
            "bufferView" : 16,
            "componentType" : 5123,
            "count" : 1182,
            "max" : [
                699
            ],
            "min" : [
                0
            ],
            "type" : "SCALAR"
        },
        {
            "bufferView" : 17,
            "componentType" : 5126,
            "count" : 700,
            "max" : [
                54.69511413574219,
                92.60708618164062,
                -0.0
            ],
            "min" : [
                -53.27825927734375,
                -93.22976684570312,
                -216.54348754882812
            ],
            "type" : "VEC3"
        },
        {
            "bufferView" : 18,
            "componentType" : 5126,
            "count" : 700,
            "max" : [
                1.0,
                1.0,
                0.9999997019767761
            ],
            "min" : [
                -1.0,
                -1.0,
                -1.0
            ],
            "type" : "VEC3"
        },
        {
            "bufferView" : 19,
            "componentType" : 5126,
            "count" : 700,
            "max" : [
                0.9308828115463257,
                0.9912847951054573
            ],
            "min" : [
                0.02758190408349037,
                0.031028449535369873
            ],
            "type" : "VEC2"
        },
        {
            "bufferView" : 20,
            "componentType" : 5123,
            "count" : 5034,
            "max" : [
                3433
            ],
            "min" : [
                0
            ],
            "type" : "SCALAR"
        },
        {
            "bufferView" : 21,
            "componentType" : 5126,
            "count" : 3434,
            "max" : [
                -54.254852294921875,
                14.31585693359375,
                -204.55313110351562
            ],
            "min" : [
                -172.5971221923828,
                -113.10569763183594,
                -233.2659149169922
            ],
            "type" : "VEC3"
        },
        {
            "bufferView" : 22,
            "componentType" : 5126,
            "count" : 3434,
            "max" : [
                0.9877374172210693,
                0.9900400042533875,
                0.9999215602874756
            ],
            "min" : [
                -0.9950314164161682,
                -0.9976581335067749,
                -0.9999727606773376
            ],
            "type" : "VEC3"
        },
        {
            "bufferView" : 23,
            "componentType" : 5126,
            "count" : 3434,
            "max" : [
                0.985588788986206,
                0.9889880502596498
            ],
            "min" : [
                -0.00609241146594286,
                0.010112583637237549
            ],
            "type" : "VEC2"
        }
    ],
    "asset" : {
        "generator" : "Khronos Blender glTF 2.0 exporter",
        "version" : "2.0"
    },
    "bufferViews" : [
        {
            "buffer" : 0,
            "byteLength" : 3792,
            "byteOffset" : 0,
            "target" : 34963
        },
        {
            "buffer" : 0,
            "byteLength" : 16032,
            "byteOffset" : 3792,
            "target" : 34962
        },
        {
            "buffer" : 0,
            "byteLength" : 16032,
            "byteOffset" : 19824,
            "target" : 34962
        },
        {
            "buffer" : 0,
            "byteLength" : 10688,
            "byteOffset" : 35856,
            "target" : 34962
        },
        {
            "buffer" : 0,
            "byteLength" : 144,
            "byteOffset" : 46544,
            "target" : 34963
        },
        {
            "buffer" : 0,
            "byteLength" : 576,
            "byteOffset" : 46688,
            "target" : 34962
        },
        {
            "buffer" : 0,
            "byteLength" : 576,
            "byteOffset" : 47264,
            "target" : 34962
        },
        {
            "buffer" : 0,
            "byteLength" : 384,
            "byteOffset" : 47840,
            "target" : 34962
        },
        {
            "buffer" : 0,
            "byteLength" : 9000,
            "byteOffset" : 48224,
            "target" : 34963
        },
        {
            "buffer" : 0,
            "byteLength" : 53964,
            "byteOffset" : 57224,
            "target" : 34962
        },
        {
            "buffer" : 0,
            "byteLength" : 53964,
            "byteOffset" : 111188,
            "target" : 34962
        },
        {
            "buffer" : 0,
            "byteLength" : 35976,
            "byteOffset" : 165152,
            "target" : 34962
        },
        {
            "buffer" : 0,
            "byteLength" : 6096,
            "byteOffset" : 201128,
            "target" : 34963
        },
        {
            "buffer" : 0,
            "byteLength" : 25248,
            "byteOffset" : 207224,
            "target" : 34962
        },
        {
            "buffer" : 0,
            "byteLength" : 25248,
            "byteOffset" : 232472,
            "target" : 34962
        },
        {
            "buffer" : 0,
            "byteLength" : 16832,
            "byteOffset" : 257720,
            "target" : 34962
        },
        {
            "buffer" : 0,
            "byteLength" : 2364,
            "byteOffset" : 274552,
            "target" : 34963
        },
        {
            "buffer" : 0,
            "byteLength" : 8400,
            "byteOffset" : 276916,
            "target" : 34962
        },
        {
            "buffer" : 0,
            "byteLength" : 8400,
            "byteOffset" : 285316,
            "target" : 34962
        },
        {
            "buffer" : 0,
            "byteLength" : 5600,
            "byteOffset" : 293716,
            "target" : 34962
        },
        {
            "buffer" : 0,
            "byteLength" : 10068,
            "byteOffset" : 299316,
            "target" : 34963
        },
        {
            "buffer" : 0,
            "byteLength" : 41208,
            "byteOffset" : 309384,
            "target" : 34962
        },
        {
            "buffer" : 0,
            "byteLength" : 41208,
            "byteOffset" : 350592,
            "target" : 34962
        },
        {
            "buffer" : 0,
            "byteLength" : 27472,
            "byteOffset" : 391800,
            "target" : 34962
        }
    ],
    "buffers" : [
        {
            "byteLength" : 419272,
            "uri" : "rack.bin"
        }
    ],
    "images" : [
        {
            "name" : "Map4",
            "uri" : "Map4.jpg"
        },
        {
            "name" : "Map5",
            "uri" : "Map5.jpg"
        },
        {
            "name" : "Map1",
            "uri" : "Map1.jpg"
        },
        {
            "name" : "Map2",
            "uri" : "Map2.jpg"
        },
        {
            "name" : "Map13",
            "uri" : "Map13.jpg"
        },
        {
            "name" : "Map8",
            "uri" : "Map8.jpg"
        },
        {
            "name" : "Map10",
            "uri" : "Map10.jpg"
        },
        {
            "name" : "Map11",
            "uri" : "Map11.jpg"
        },
        {
            "name" : "Map7",
            "uri" : "Map7.jpg"
        }
    ],
    "materials" : [
        {
            "name" : "M_Barrel",
            "normalTexture" : {
                "index" : 1
            },
            "pbrMetallicRoughness" : {
                "baseColorFactor" : [
                    0.4705882619409003,
                    0.4705882619409003,
                    0.4705882619409003,
                    1.0
                ],
                "baseColorTexture" : {
                    "index" : 0
                },
                "metallicFactor" : 0.0
            }
        },
        {
            "name" : "M_Crate",
            "normalTexture" : {
                "index" : 3
            },
            "pbrMetallicRoughness" : {
                "baseColorFactor" : [
                    0.4705882619409003,
                    0.4705882619409003,
                    0.4705882619409003,
                    1.0
                ],
                "baseColorTexture" : {
                    "index" : 2
                },
                "metallicFactor" : 0.0
            }
        },
        {
            "name" : "M_Crossbow",
            "pbrMetallicRoughness" : {
                "baseColorFactor" : [
                    0.4704000066280365,
                    0.4704000066280365,
                    0.4704000066280365,
                    1.0
                ],
                "baseColorTexture" : {
                    "index" : 4
                },
                "metallicFactor" : 0.0
            }
        },
        {
            "name" : "M_Spear",
            "pbrMetallicRoughness" : {
                "baseColorFactor" : [
                    0.4705882619409003,
                    0.4705882619409003,
                    0.4705882619409003,
                    1.0
                ],
                "baseColorTexture" : {
                    "index" : 5
                },
                "metallicFactor" : 0.0
            }
        },
        {
            "name" : "M_Sword",
            "normalTexture" : {
                "index" : 7
            },
            "pbrMetallicRoughness" : {
                "baseColorFactor" : [
                    0.4705882619409003,
                    0.4705882619409003,
                    0.4705882619409003,
                    1.0
                ],
                "baseColorTexture" : {
                    "index" : 6
                },
                "metallicFactor" : 0.0
            }
        },
        {
            "name" : "M_WeaponRack",
            "pbrMetallicRoughness" : {
                "baseColorFactor" : [
                    0.4705882619409003,
                    0.4705882619409003,
                    0.4705882619409003,
                    1.0
                ],
                "baseColorTexture" : {
                    "index" : 8
                },
                "metallicFactor" : 0.0
            }
        }
    ],
    "meshes" : [
        {
            "name" : "Untitled.010",
            "primitives" : [
                {
                    "attributes" : {
                        "NORMAL" : 2,
                        "POSITION" : 1,
                        "TEXCOORD_0" : 3
                    },
                    "indices" : 0,
                    "material" : 3
                },
                {
                    "attributes" : {
                        "NORMAL" : 6,
                        "POSITION" : 5,
                        "TEXCOORD_0" : 7
                    },
                    "indices" : 4,
                    "material" : 1
                },
                {
                    "attributes" : {
                        "NORMAL" : 10,
                        "POSITION" : 9,
                        "TEXCOORD_0" : 11
                    },
                    "indices" : 8,
                    "material" : 0
                },
                {
                    "attributes" : {
                        "NORMAL" : 14,
                        "POSITION" : 13,
                        "TEXCOORD_0" : 15
                    },
                    "indices" : 12,
                    "material" : 4
                },
                {
                    "attributes" : {
                        "NORMAL" : 18,
                        "POSITION" : 17,
                        "TEXCOORD_0" : 19
                    },
                    "indices" : 16,
                    "material" : 5
                },
                {
                    "attributes" : {
                        "NORMAL" : 22,
                        "POSITION" : 21,
                        "TEXCOORD_0" : 23
                    },
                    "indices" : 20,
                    "material" : 2
                }
            ]
        }
    ],
    "nodes" : [
        {
            "mesh" : 0,
            "name" : "Weapon_rack",
            "rotation" : [
                0.6523066163063049,
                0.2729397714138031,
                -0.27293986082077026,
                0.6523064970970154
            ],
            "scale" : [
                0.0052795084193348885,
                0.0052795084193348885,
                0.005279507953673601
            ],
            "translation" : [
                0.5916760563850403,
                0.0,
                0.024848222732543945
            ]
        }
    ],
    "samplers" : [
        {}
    ],
    "scene" : 0,
    "scenes" : [
        {
            "name" : "Scene",
            "nodes" : [
                0
            ]
        }
    ],
    "textures" : [
        {
            "sampler" : 0,
            "source" : 0
        },
        {
            "sampler" : 0,
            "source" : 1
        },
        {
            "sampler" : 0,
            "source" : 2
        },
        {
            "sampler" : 0,
            "source" : 3
        },
        {
            "sampler" : 0,
            "source" : 4
        },
        {
            "sampler" : 0,
            "source" : 5
        },
        {
            "sampler" : 0,
            "source" : 6
        },
        {
            "sampler" : 0,
            "source" : 7
        },
        {
            "sampler" : 0,
            "source" : 8
        }
    ]
}
