{
  "accessors": [
    {
      "bufferView": 2,
      "componentType": 5126,
      "count": 5511,
      "max": [
        3.4443221092224121,
        1.0000001192092896,
        0.90502125024795532
      ],
      "min": [
        -0.85119199752807617,
        -1,
        -1.0000002384185791
      ],
      "type": "VEC3"
    },
    {
      "bufferView": 2,
      "byteOffset": 66132,
      "componentType": 5126,
      "count": 5511,
      "max": [
        1,
        0.99683403968811035,
        1
      ],
      "min": [
        -0.99982953071594238,
        -0.99683409929275513,
        -1
      ],
      "type": "VEC3"
    },
    {
      "bufferView": 3,
      "componentType": 5126,
      "count": 5511,
      "max": [
        1,
        1,
        0.99971407651901245,
        1
      ],
      "min": [
        -1,
        -0.94302487373352051,
        -0.99972569942474365,
        -1
      ],
      "type": "VEC4"
    },
    {
      "bufferView": 1,
      "componentType": 5126,
      "count": 5511,
      "max": [
        0.87369799613952637,
        1
      ],
      "min": [
        0.125,
        0.25
      ],
      "type": "VEC2"
    },
    {
      "bufferView": 0,
      "componentType": 5125,
      "count": 8421,
      "max": [
        5510
      ],
      "min": [
        0
      ],
      "type": "SCALAR"
    },
    {
      "bufferView": 2,
      "byteOffset": 132264,
      "componentType": 5126,
      "count": 992,
      "max": [
        3.4443221092224121,
        1.0000001192092896,
        0.90502125024795532
      ],
      "min": [
        -0.85119199752807617,
        -1,
        -1.0000001192092896
      ],
      "type": "VEC3"
    },
    {
      "bufferView": 2,
      "byteOffset": 144168,
      "componentType": 5126,
      "count": 992,
      "max": [
        -0.074486792087554932,
        0.58901560306549072,
        0.99647623300552368
      ],
      "min": [
        -0.98842471837997437,
        -0.58901560306549072,
        0.11271252483129501
      ],
      "type": "VEC3"
    },
    {
      "bufferView": 3,
      "byteOffset": 88176,
      "componentType": 5126,
      "count": 992,
      "max": [
        0.99641817808151245,
        0.83469265699386597,
        0.99362635612487793,
        1
      ],
      "min": [
        -0.13915582001209259,
        -0.99950206279754639,
        0.019559513777494431,
        1
      ],
      "type": "VEC4"
    },
    {
      "bufferView": 1,
      "byteOffset": 44088,
      "componentType": 5126,
      "count": 992,
      "max": [
        0.87369799613952637,
        0.74479168653488159
      ],
      "min": [
        0.375,
        0.44270876049995422
      ],
      "type": "VEC2"
    },
    {
      "bufferView": 0,
      "byteOffset": 33684,
      "componentType": 5125,
      "count": 1488,
      "max": [
        991
      ],
      "min": [
        0
      ],
      "type": "SCALAR"
    },
    {
      "bufferView": 2,
      "byteOffset": 156072,
      "componentType": 5126,
      "count": 864,
      "max": [
        1.2834151983261108,
        1.2834150791168213,
        0.10846679657697678
      ],
      "min": [
        -1.2834151983261108,
        -1.2834153175354004,
        -7.8151321411132812
      ],
      "type": "VEC3"
    },
    {
      "bufferView": 2,
      "byteOffset": 166440,
      "componentType": 5126,
      "count": 864,
      "max": [
        0.99518483877182007,
        0.99518483877182007,
        1
      ],
      "min": [
        -0.99518477916717529,
        -0.99518483877182007,
        -1
      ],
      "type": "VEC3"
    },
    {
      "bufferView": 3,
      "byteOffset": 104048,
      "componentType": 5126,
      "count": 864,
      "max": [
        0,
        0,
        0,
        1
      ],
      "min": [
        0,
        0,
        0,
        1
      ],
      "type": "VEC4"
    },
    {
      "bufferView": 1,
      "byteOffset": 52024,
      "componentType": 5126,
      "count": 864,
      "max": [
        0,
        0
      ],
      "min": [
        0,
        0
      ],
      "type": "VEC2"
    },
    {
      "bufferView": 0,
      "byteOffset": 39636,
      "componentType": 5125,
      "count": 1422,
      "max": [
        863
      ],
      "min": [
        0
      ],
      "type": "SCALAR"
    },
    {
      "bufferView": 2,
      "byteOffset": 176808,
      "componentType": 5126,
      "count": 3652,
      "max": [
        0.53416949510574341,
        0.56713718175888062,
        0.019134365022182465
      ],
      "min": [
        -0.60010457038879395,
        -0.56713646650314331,
        -7.1109695434570312
      ],
      "type": "VEC3"
    },
    {
      "bufferView": 2,
      "byteOffset": 220632,
      "componentType": 5126,
      "count": 3652,
      "max": [
        0.99518489837646484,
        0.99518489837646484,
        2.4497924755451095e-07
      ],
      "min": [
        -0.99518483877182007,
        -0.99518483877182007,
        -1
      ],
      "type": "VEC3"
    },
    {
      "bufferView": 3,
      "byteOffset": 117872,
      "componentType": 5126,
      "count": 3652,
      "max": [
        0,
        0,
        0,
        1
      ],
      "min": [
        0,
        0,
        0,
        1
      ],
      "type": "VEC4"
    },
    {
      "bufferView": 1,
      "byteOffset": 58936,
      "componentType": 5126,
      "count": 3652,
      "max": [
        0,
        0
      ],
      "min": [
        0,
        0
      ],
      "type": "VEC2"
    },
    {
      "bufferView": 0,
      "byteOffset": 45324,
      "componentType": 5125,
      "count": 5592,
      "max": [
        3651
      ],
      "min": [
        0
      ],
      "type": "SCALAR"
    },
    {
      "bufferView": 2,
      "byteOffset": 264456,
      "componentType": 5126,
      "count": 128,
      "max": [
        0.51465743780136108,
        0.54762512445449829,
        -0.26776057481765747
      ],
      "min": [
        -0.58059209585189819,
        -0.54762440919876099,
        -7.1128768920898438
      ],
      "type": "VEC3"
    },
    {
      "bufferView": 2,
      "byteOffset": 265992,
      "componentType": 5126,
      "count": 128,
      "max": [
        0.99518483877182007,
        0.99518483877182007,
        0
      ],
      "min": [
        -0.99518483877182007,
        -0.99518477916717529,
        0
      ],
      "type": "VEC3"
    },
    {
      "bufferView": 3,
      "byteOffset": 176304,
      "componentType": 5126,
      "count": 128,
      "max": [
        0,
        0,
        0,
        1
      ],
      "min": [
        0,
        0,
        0,
        1
      ],
      "type": "VEC4"
    },
    {
      "bufferView": 1,
      "byteOffset": 88152,
      "componentType": 5126,
      "count": 128,
      "max": [
        0,
        0
      ],
      "min": [
        0,
        0
      ],
      "type": "VEC2"
    },
    {
      "bufferView": 0,
      "byteOffset": 67692,
      "componentType": 5125,
      "count": 192,
      "max": [
        127
      ],
      "min": [
        0
      ],
      "type": "SCALAR"
    }
  ],
  "asset": {
    "extras": {
      "author": "JavierG (https://sketchfab.com/JavierG)",
      "license": "CC-BY-4.0 (http://creativecommons.org/licenses/by/4.0/)",
      "source": "https://sketchfab.com/3d-models/katana-red-ba152ff48f624e419d0ffed160d5582f",
      "title": "Katana red"
    },
    "generator": "Sketchfab-4.50.0",
    "version": "2.0"
  },
  "bufferViews": [
    {
      "buffer": 0,
      "byteLength": 68460,
      "byteOffset": 0,
      "name": "floatBufferViews",
      "target": 34963
    },
    {
      "buffer": 0,
      "byteLength": 89176,
      "byteOffset": 68460,
      "byteStride": 8,
      "name": "floatBufferViews",
      "target": 34962
    },
    {
      "buffer": 0,
      "byteLength": 267528,
      "byteOffset": 157636,
      "byteStride": 12,
      "name": "floatBufferViews",
      "target": 34962
    },
    {
      "buffer": 0,
      "byteLength": 178352,
      "byteOffset": 425164,
      "byteStride": 16,
      "name": "floatBufferViews",
      "target": 34962
    }
  ],
  "buffers": [
    {
      "byteLength": 603516,
      "uri": "scene.bin"
    }
  ],
  "materials": [
    {
      "doubleSided": true,
      "name": "FiloBase",
      "pbrMetallicRoughness": {
        "baseColorFactor": [
          0.26225065749999998,
          0.26225065749999998,
          0.26225065749999998,
          1
        ],
        "metallicFactor": 1,
        "roughnessFactor": 0.82111456179999998
      }
    },
    {
      "doubleSided": true,
      "emissiveFactor": [
        1,
        0,
        0
      ],
      "name": "Filo_Secundario",
      "pbrMetallicRoughness": {
        "baseColorFactor": [
          0.80000000000000004,
          0.80000000000000004,
          0.80000000000000004,
          1
        ],
        "metallicFactor": 0,
        "roughnessFactor": 0.78091097700000001
      }
    },
    {
      "doubleSided": true,
      "emissiveFactor": [
        0,
        0,
        0
      ],
      "name": "Guardia",
      "pbrMetallicRoughness": {
        "baseColorFactor": [
          0.30629222249999999,
          0,
          0,
          1
        ],
        "metallicFactor": 0.68045455470000005,
        "roughnessFactor": 0.9745561989
      }
    },
    {
      "doubleSided": true,
      "name": "Base",
      "pbrMetallicRoughness": {
        "baseColorFactor": [
          0.013968299999999999,
          0.013968299999999999,
          0.013968299999999999,
          1
        ],
        "metallicFactor": 0.55924243350000002,
        "roughnessFactor": 0.99687659319999999
      }
    },
    {
      "doubleSided": true,
      "emissiveFactor": [
        0.68000000000000005,
        0,
        0
      ],
      "name": "Interior",
      "pbrMetallicRoughness": {
        "baseColorFactor": [
          0.80000000000000004,
          0.80000000000000004,
          0.80000000000000004,
          1
        ],
        "metallicFactor": 0,
        "roughnessFactor": 0.78091097700000001
      }
    }
  ],
  "meshes": [
    {
      "name": "FIlo_FiloBase_0",
      "primitives": [
        {
          "attributes": {
            "NORMAL": 1,
            "POSITION": 0,
            "TANGENT": 2,
            "TEXCOORD_0": 3
          },
          "indices": 4,
          "material": 0,
          "mode": 4
        }
      ]
    },
    {
      "name": "FIlo_Filo Secundario_0",
      "primitives": [
        {
          "attributes": {
            "NORMAL": 6,
            "POSITION": 5,
            "TANGENT": 7,
            "TEXCOORD_0": 8
          },
          "indices": 9,
          "material": 1,
          "mode": 4
        }
      ]
    },
    {
      "name": "Guardia_Guardia_0",
      "primitives": [
        {
          "attributes": {
            "NORMAL": 11,
            "POSITION": 10,
            "TANGENT": 12,
            "TEXCOORD_0": 13
          },
          "indices": 14,
          "material": 2,
          "mode": 4
        }
      ]
    },
    {
      "name": "Guardia_Base_0",
      "primitives": [
        {
          "attributes": {
            "NORMAL": 16,
            "POSITION": 15,
            "TANGENT": 17,
            "TEXCOORD_0": 18
          },
          "indices": 19,
          "material": 3,
          "mode": 4
        }
      ]
    },
    {
      "name": "Guardia_Interior_0",
      "primitives": [
        {
          "attributes": {
            "NORMAL": 21,
            "POSITION": 20,
            "TANGENT": 22,
            "TEXCOORD_0": 23
          },
          "indices": 24,
          "material": 4,
          "mode": 4
        }
      ]
    }
  ],
  "nodes": [
    {
      "children": [
        1
      ],
      "name": "RootNode (gltf orientation matrix)",
      "rotation": [
        -0.70710678118654746,
        -0,
        -0,
        0.70710678118654757
      ]
    },
    {
      "children": [
        2
      ],
      "name": "RootNode (model correction matrix)"
    },
    {
      "children": [
        3
      ],
      "matrix": [
        1,
        0,
        0,
        0,
        0,
        0,
        1,
        0,
        0,
        -1,
        0,
        0,
        0,
        0,
        0,
        1
      ],
      "name": "c4082d26112c4d83b968ffa86a5711a9.fbx"
    },
    {
      "children": [
        4,
        7,
        10,
        12
      ],
      "name": "RootNode"
    },
    {
      "children": [
        5,
        6
      ],
      "matrix": [
        100,
        0,
        0,
        0,
        0,
        -3.5353095706240295e-06,
        -21.699575424194048,
        0,
        0,
        1448.1771240234184,
        -0.00023593800092560694,
        0,
        0,
        4.0055913925170898,
        0,
        1
      ],
      "name": "FIlo"
    },
    {
      "mesh": 0,
      "name": "FIlo_FiloBase_0"
    },
    {
      "mesh": 1,
      "name": "FIlo_Filo Secundario_0"
    },
    {
      "children": [
        8
      ],
      "matrix": [
        -29.08647719990347,
        -5.5189064575668629,
        -95.517119101714371,
        0,
        56.639309131094492,
        79.467234285632031,
        -21.839123978419661,
        0,
        77.110087759933748,
        -60.452463565620441,
        -19.988346967737169,
        0,
        407.62454223632812,
        590.38623046875,
        -100.54539489746094,
        1
      ],
      "name": "Light"
    },
    {
      "children": [
        9
      ],
      "matrix": [
        1,
        0,
        0,
        0,
        0,
        2.2204460492503131e-16,
        1,
        0,
        0,
        -1,
        2.2204460492503131e-16,
        0,
        0,
        0,
        0,
        1
      ],
      "name": ""
    },
    {
      "name": ""
    },
    {
      "children": [
        11
      ],
      "matrix": [
        -65.155832803290963,
        -44.527135765708579,
        -61.417030473735487,
        0,
        -32.40134137821245,
        89.539574512336159,
        -30.542088974418615,
        0,
        68.592054721299746,
        -1.0718647115348782e-05,
        -72.767633623962695,
        0,
        735.88916015625,
        495.8309326171875,
        692.5791015625,
        1
      ],
      "name": "Camera"
    },
    {
      "name": ""
    },
    {
      "children": [
        13,
        14,
        15
      ],
      "matrix": [
        100,
        0,
        0,
        0,
        0,
        -1.6292067939183141e-05,
        -99.999999999998678,
        0,
        0,
        99.999999999998678,
        -1.6292067939183141e-05,
        0,
        12.911876678466797,
        -1448.177001953125,
        2.292486414035011e-07,
        1
      ],
      "name": "Guardia"
    },
    {
      "mesh": 2,
      "name": "Guardia_Guardia_0"
    },
    {
      "mesh": 3,
      "name": "Guardia_Base_0"
    },
    {
      "mesh": 4,
      "name": "Guardia_Interior_0"
    }
  ],
  "scene": 0,
  "scenes": [
    {
      "name": "OSG_Scene",
      "nodes": [
        0
      ]
    }
  ]
}

