{
  "accessors": [
    {
      "bufferView": 2,
      "componentType": 5126,
      "count": 19156,
      "max": [
        5.7259597778320312,
        18.17650032043457,
        10.486499786376953
      ],
      "min": [
        -7.1221299171447754,
        5.2887001037597656,
        -5.1354999542236328
      ],
      "type": "VEC3"
    },
    {
      "bufferView": 2,
      "byteOffset": 229872,
      "componentType": 5126,
      "count": 19156,
      "max": [
        0.99959009885787964,
        0.99988514184951782,
        0.99946153163909912
      ],
      "min": [
        -0.99897569417953491,
        -0.99964416027069092,
        -0.99778276681900024
      ],
      "type": "VEC3"
    },
    {
      "bufferView": 3,
      "componentType": 5126,
      "count": 19156,
      "max": [
        0.99966484308242798,
        0.99993175268173218,
        0.99953621625900269,
        1
      ],
      "min": [
        -0.9998278021812439,
        -0.98745477199554443,
        -0.99932372570037842,
        1
      ],
      "type": "VEC4"
    },
    {
      "bufferView": 1,
      "componentType": 5126,
      "count": 19156,
      "max": [
        0,
        1
      ],
      "min": [
        -1,
        0
      ],
      "type": "VEC2"
    },
    {
      "bufferView": 0,
      "componentType": 5125,
      "count": 21600,
      "max": [
        19155
      ],
      "min": [
        0
      ],
      "type": "SCALAR"
    },
    {
      "bufferView": 2,
      "byteOffset": 459744,
      "componentType": 5126,
      "count": 4907,
      "max": [
        5.6461501121520996,
        17.687299728393555,
        10.023900032043457
      ],
      "min": [
        -6.6017599105834961,
        -0.0040000001899898052,
        -4.7761201858520508
      ],
      "type": "VEC3"
    },
    {
      "bufferView": 2,
      "byteOffset": 518628,
      "componentType": 5126,
      "count": 4907,
      "max": [
        0.99983835220336914,
        0.9998595118522644,
        0.99920719861984253
      ],
      "min": [
        -0.99931919574737549,
        -0.99820715188980103,
        -0.99861729145050049
      ],
      "type": "VEC3"
    },
    {
      "bufferView": 3,
      "byteOffset": 306496,
      "componentType": 5126,
      "count": 4907,
      "max": [
        0.99935436248779297,
        0.99898409843444824,
        0.99997073411941528,
        -1
      ],
      "min": [
        -0.99972361326217651,
        -0.99995583295822144,
        -0.99956059455871582,
        -1
      ],
      "type": "VEC4"
    },
    {
      "bufferView": 1,
      "byteOffset": 153248,
      "componentType": 5126,
      "count": 4907,
      "max": [
        0,
        8
      ],
      "min": [
        -1,
        0
      ],
      "type": "VEC2"
    },
    {
      "bufferView": 0,
      "byteOffset": 86400,
      "componentType": 5125,
      "count": 11466,
      "max": [
        4906
      ],
      "min": [
        0
      ],
      "type": "SCALAR"
    }
  ],
  "asset": {
    "extras": {
      "author": "torchwurm (https://sketchfab.com/torchwurm)",
      "license": "CC-BY-4.0 (http://creativecommons.org/licenses/by/4.0/)",
      "source": "https://sketchfab.com/models/c55bfe9f6ff94d1d94443796b3b320a5",
      "title": "Tree"
    },
    "generator": "Sketchfab-3.29.4",
    "version": "2.0"
  },
  "bufferViews": [
    {
      "buffer": 0,
      "byteLength": 132264,
      "byteOffset": 0,
      "name": "floatBufferViews",
      "target": 34963
    },
    {
      "buffer": 0,
      "byteLength": 192504,
      "byteOffset": 132264,
      "byteStride": 8,
      "name": "floatBufferViews",
      "target": 34962
    },
    {
      "buffer": 0,
      "byteLength": 577512,
      "byteOffset": 324768,
      "byteStride": 12,
      "name": "floatBufferViews",
      "target": 34962
    },
    {
      "buffer": 0,
      "byteLength": 385008,
      "byteOffset": 902280,
      "byteStride": 16,
      "name": "floatBufferViews",
      "target": 34962
    }
  ],
  "buffers": [
    {
      "byteLength": 1287288,
      "uri": "tree2.bin"
    }
  ],
  "images": [
    {
      "uri": "textures/wood03png_baseColor.png"
    },
    {
      "uri": "textures/leaf08png_baseColor.png"
    }
  ],
  "materials": [
    {
      "alphaMode": "BLEND",
      "doubleSided": true,
      "emissiveFactor": [
        0,
        0,
        0
      ],
      "name": "leaf08png",
      "pbrMetallicRoughness": {
        "baseColorFactor": [
          1,
          1,
          1,
          1
        ],
        "baseColorTexture": {
          "index": 1,
          "texCoord": 0
        },
        "metallicFactor": 0.34999999999999998,
        "roughnessFactor": 0.57000000000000006
      }
    },
    {
      "doubleSided": true,
      "name": "wood03png",
      "pbrMetallicRoughness": {
        "baseColorFactor": [
          1,
          1,
          1,
          1
        ],
        "baseColorTexture": {
          "index": 0,
          "texCoord": 0
        },
        "metallicFactor": 0.20000000000000001,
        "roughnessFactor": 0.28000000000000003
      }
    }
  ],
  "meshes": [
    {
      "name": "Save OBJ",
      "primitives": [
        {
          "attributes": {
            "NORMAL": 1,
            "POSITION": 0,
            "TANGENT": 2,
            "TEXCOORD_0": 3
          },
          "indices": 4,
          "material": 0,
          "mode": 4
        }
      ]
    },
    {
      "name": "Save OBJ",
      "primitives": [
        {
          "attributes": {
            "NORMAL": 6,
            "POSITION": 5,
            "TANGENT": 7,
            "TEXCOORD_0": 8
          },
          "indices": 9,
          "material": 1,
          "mode": 4
        }
      ]
    }
  ],
  "nodes": [
    {
      "children": [
        1
      ],
      "name": "RootNode (gltf orientation matrix)",
      "rotation": [
        -0.70710678118654746,
        -0,
        -0,
        0.70710678118654757
      ]
    },
    {
      "children": [
        2
      ],
      "name": "RootNode (model correction matrix)"
    },
    {
      "children": [
        3
      ],
      "name": "Root"
    },
    {
      "children": [
        4,
        5
      ],
      "matrix": [
        1,
        0,
        0,
        0,
        0,
        -0,
        1,
        0,
        0,
        -1,
        -0,
        0,
        0,
        0,
        0,
        1
      ],
      "name": "Save OBJ"
    },
    {
      "mesh": 0,
      "name": "Save OBJ"
    },
    {
      "mesh": 1,
      "name": "Save OBJ"
    }
  ],
  "samplers": [
    {
      "magFilter": 9729,
      "minFilter": 9987,
      "wrapS": 10497,
      "wrapT": 10497
    }
  ],
  "scene": 0,
  "scenes": [
    {
      "name": "OSG_Scene",
      "nodes": [
        0
      ]
    }
  ],
  "textures": [
    {
      "sampler": 0,
      "source": 0
    },
    {
      "sampler": 0,
      "source": 1
    }
  ]
}

