{
    "accessors" : [
        {
            "bufferView" : 0,
            "componentType" : 5123,
            "count" : 708,
            "max" : [
                216
            ],
            "min" : [
                0
            ],
            "type" : "SCALAR"
        },
        {
            "bufferView" : 1,
            "componentType" : 5126,
            "count" : 217,
            "max" : [
                0.809079110622406,
                0.14268921315670013,
                0.45359185338020325
            ],
            "min" : [
                -0.7644391059875488,
                -0.14269192516803741,
                -0.474408894777298
            ],
            "type" : "VEC3"
        },
        {
            "bufferView" : 2,
            "componentType" : 5126,
            "count" : 217,
            "max" : [
                0.9920957088470459,
                0.99945068359375,
                0.9859614968299866
            ],
            "min" : [
                -0.9920957088470459,
                -0.999969482421875,
                -0.9949339032173157
            ],
            "type" : "VEC3"
        },
        {
            "bufferView" : 3,
            "componentType" : 5126,
            "count" : 217,
            "max" : [
                0.9989510774612427,
                0.9960309267044067,
                0.9956702589988708,
                1.0
            ],
            "min" : [
                -0.9998775720596313,
                -0.9740473031997681,
                -0.9976233839988708,
                1.0
            ],
            "type" : "VEC4"
        },
        {
            "bufferView" : 4,
            "componentType" : 5126,
            "count" : 217,
            "max" : [
                0.9871885776519775,
                0.9888254404067993
            ],
            "min" : [
                0.020330877974629402,
                0.02495044469833374
            ],
            "type" : "VEC2"
        }
    ],
    "asset" : {
        "generator" : "Khronos Blender glTF 2.0 exporter",
        "version" : "2.0"
    },
    "bufferViews" : [
        {
            "buffer" : 0,
            "byteLength" : 1416,
            "byteOffset" : 0,
            "target" : 34963
        },
        {
            "buffer" : 0,
            "byteLength" : 2604,
            "byteOffset" : 1416,
            "target" : 34962
        },
        {
            "buffer" : 0,
            "byteLength" : 2604,
            "byteOffset" : 4020,
            "target" : 34962
        },
        {
            "buffer" : 0,
            "byteLength" : 3472,
            "byteOffset" : 6624,
            "target" : 34962
        },
        {
            "buffer" : 0,
            "byteLength" : 1736,
            "byteOffset" : 10096,
            "target" : 34962
        }
    ],
    "buffers" : [
        {
            "byteLength" : 11832,
            "uri" : "bird.bin"
        }
    ],
    "materials" : [
        {
            "name" : "crow01",
            "pbrMetallicRoughness" : {
                "baseColorFactor" : [
                    0.0,
                    0.0,
                    0.0,
                    1.0
                ],
                "metallicFactor" : 0.0
            }
        }
    ],
    "meshes" : [
        {
            "name" : "Plane.108",
            "primitives" : [
                {
                    "attributes" : {
                        "NORMAL" : 2,
                        "POSITION" : 1,
                        "TANGENT" : 3,
                        "TEXCOORD_0" : 4
                    },
                    "indices" : 0,
                    "material" : 0
                }
            ]
        }
    ],
    "nodes" : [
        {
            "mesh" : 0,
            "name" : "flyingCrow",
            "translation" : [
                0.0,
                3.292353630065918,
                -0.0
            ]
        }
    ],
    "scene" : 0,
    "scenes" : [
        {
            "name" : "Scene",
            "nodes" : [
                0
            ]
        }
    ]
}
