{
    "accessors" : [
        {
            "bufferView" : 0,
            "componentType" : 5123,
            "count" : 720,
            "max" : [
                215
            ],
            "min" : [
                0
            ],
            "type" : "SCALAR"
        },
        {
            "bufferView" : 1,
            "componentType" : 5126,
            "count" : 216,
            "max" : [
                50.0,
                49.72609329223633,
                0.16279162466526031
            ],
            "min" : [
                -48.907379150390625,
                -49.72609329223633,
                -136.1344757080078
            ],
            "type" : "VEC3"
        },
        {
            "bufferView" : 2,
            "componentType" : 5126,
            "count" : 216,
            "max" : [
                0.9968565702438354,
                0.9945066571235657,
                1.0
            ],
            "min" : [
                -1.0,
                -0.9945066571235657,
                -1.0
            ],
            "type" : "VEC3"
        },
        {
            "bufferView" : 3,
            "componentType" : 5126,
            "count" : 216,
            "max" : [
                1.0,
                0.9781480431556702,
                0.9999709129333496,
                1.0
            ],
            "min" : [
                -0.9945468902587891,
                -0.9998561143875122,
                -0.9868533611297607,
                -1.0
            ],
            "type" : "VEC4"
        },
        {
            "bufferView" : 4,
            "componentType" : 5126,
            "count" : 216,
            "max" : [
                0.9944872856140137,
                0.9932417869567871
            ],
            "min" : [
                0.005013465881347656,
                3.0517578125e-05
            ],
            "type" : "VEC2"
        }
    ],
    "asset" : {
        "generator" : "Khronos Blender glTF 2.0 exporter",
        "version" : "2.0"
    },
    "bufferViews" : [
        {
            "buffer" : 0,
            "byteLength" : 1440,
            "byteOffset" : 0,
            "target" : 34963
        },
        {
            "buffer" : 0,
            "byteLength" : 2592,
            "byteOffset" : 1440,
            "target" : 34962
        },
        {
            "buffer" : 0,
            "byteLength" : 2592,
            "byteOffset" : 4032,
            "target" : 34962
        },
        {
            "buffer" : 0,
            "byteLength" : 3456,
            "byteOffset" : 6624,
            "target" : 34962
        },
        {
            "buffer" : 0,
            "byteLength" : 1728,
            "byteOffset" : 10080,
            "target" : 34962
        }
    ],
    "buffers" : [
        {
            "byteLength" : 11808,
            "uri" : "barrel.bin"
        }
    ],
    "images" : [
        {
            "name" : "barrel_tex_Normal",
            "uri" : "barrel_tex_Normal.png"
        },
        {
            "name" : "barrel_tex_MetallicSmoothness",
            "uri" : "barrel_tex_MetallicSmoothness.png"
        },
        {
            "name" : "barrel_tex_AlbedoTransparency",
            "uri" : "barrel_tex_AlbedoTransparency.png"
        }
    ],
    "materials" : [
        {
            "name" : "Material.001",
            "pbrMetallicRoughness" : {
                "baseColorFactor" : [
                    0.6400000190734865,
                    0.6400000190734865,
                    0.6400000190734865,
                    1.0
                ],
                "baseColorTexture" : {
                    "index" : 2
                },
                "metallicFactor" : 0.0
            }
        }
    ],
    "meshes" : [
        {
            "name" : "Untitled.001",
            "primitives" : [
                {
                    "attributes" : {
                        "NORMAL" : 2,
                        "POSITION" : 1,
                        "TANGENT" : 3,
                        "TEXCOORD_0" : 4
                    },
                    "indices" : 0,
                    "material" : 0
                }
            ]
        }
    ],
    "nodes" : [
        {
            "mesh" : 0,
            "name" : "barrel",
            "rotation" : [
                0.7071068286895752,
                0.0,
                -0.0,
                0.7071067094802856
            ],
            "scale" : [
                0.011819436214864254,
                0.011819436214864254,
                0.011819436214864254
            ]
        }
    ],
    "samplers" : [
        {}
    ],
    "scene" : 0,
    "scenes" : [
        {
            "name" : "Scene",
            "nodes" : [
                0
            ]
        }
    ],
    "textures" : [
        {
            "sampler" : 0,
            "source" : 0
        },
        {
            "sampler" : 0,
            "source" : 1
        },
        {
            "sampler" : 0,
            "source" : 2
        }
    ]
}
