{
    "accessors" : [
        {
            "bufferView" : 0,
            "componentType" : 5123,
            "count" : 18,
            "max" : [
                7
            ],
            "min" : [
                0
            ],
            "type" : "SCALAR"
        },
        {
            "bufferView" : 1,
            "componentType" : 5126,
            "count" : 8,
            "max" : [
                29.903732299804688,
                135.7060546875,
                8.663535118103027e-05
            ],
            "min" : [
                -28.20568084716797,
                -211.41668701171875,
                4.234910011291504e-05
            ],
            "type" : "VEC3"
        },
        {
            "bufferView" : 2,
            "componentType" : 5126,
            "count" : 8,
            "max" : [
                0.0,
                0.0,
                -1.0
            ],
            "min" : [
                0.0,
                0.0,
                -1.0
            ],
            "type" : "VEC3"
        },
        {
            "bufferView" : 3,
            "componentType" : 5126,
            "count" : 8,
            "max" : [
                0.6742687821388245,
                0.9840926732867956
            ],
            "min" : [
                0.012608133256435394,
                0.13016295433044434
            ],
            "type" : "VEC2"
        },
        {
            "bufferView" : 4,
            "componentType" : 5126,
            "count" : 8,
            "max" : [
                0.0,
                1.0
            ],
            "min" : [
                0.0,
                1.0
            ],
            "type" : "VEC2"
        },
        {
            "bufferView" : 5,
            "componentType" : 5123,
            "count" : 8946,
            "max" : [
                5389
            ],
            "min" : [
                0
            ],
            "type" : "SCALAR"
        },
        {
            "bufferView" : 6,
            "componentType" : 5126,
            "count" : 5390,
            "max" : [
                27.077604293823242,
                78.90978240966797,
                0.28244200348854065
            ],
            "min" : [
                -26.291467666625977,
                -93.59564208984375,
                -10.634215354919434
            ],
            "type" : "VEC3"
        },
        {
            "bufferView" : 7,
            "componentType" : 5126,
            "count" : 5390,
            "max" : [
                1.0,
                1.0,
                0.9871821999549866
            ],
            "min" : [
                -1.0,
                -1.0,
                -1.0
            ],
            "type" : "VEC3"
        },
        {
            "bufferView" : 8,
            "componentType" : 5126,
            "count" : 5390,
            "max" : [
                0.9940372109413147,
                0.9941612416878343
            ],
            "min" : [
                0.008379168808460236,
                0.004556775093078613
            ],
            "type" : "VEC2"
        },
        {
            "bufferView" : 9,
            "componentType" : 5126,
            "count" : 5390,
            "max" : [
                0.0,
                1.0
            ],
            "min" : [
                0.0,
                1.0
            ],
            "type" : "VEC2"
        },
        {
            "bufferView" : 10,
            "componentType" : 5123,
            "count" : 6909,
            "max" : [
                3685
            ],
            "min" : [
                0
            ],
            "type" : "SCALAR"
        },
        {
            "bufferView" : 11,
            "componentType" : 5126,
            "count" : 3686,
            "max" : [
                7.402501106262207,
                -57.99687957763672,
                0.28245076537132263
            ],
            "min" : [
                -6.67747688293457,
                -79.87272644042969,
                -9.483063697814941
            ],
            "type" : "VEC3"
        },
        {
            "bufferView" : 12,
            "componentType" : 5126,
            "count" : 3686,
            "max" : [
                1.0,
                1.0,
                1.0
            ],
            "min" : [
                -1.0,
                -1.0,
                -1.0
            ],
            "type" : "VEC3"
        },
        {
            "bufferView" : 13,
            "componentType" : 5126,
            "count" : 3686,
            "max" : [
                0.9933779239654541,
                0.9870893247425556
            ],
            "min" : [
                0.005859254859387875,
                0.0020165443420410156
            ],
            "type" : "VEC2"
        },
        {
            "bufferView" : 14,
            "componentType" : 5126,
            "count" : 3686,
            "max" : [
                0.0,
                1.0
            ],
            "min" : [
                0.0,
                1.0
            ],
            "type" : "VEC2"
        },
        {
            "bufferView" : 15,
            "componentType" : 5123,
            "count" : 6804,
            "max" : [
                2593
            ],
            "min" : [
                0
            ],
            "type" : "SCALAR"
        },
        {
            "bufferView" : 16,
            "componentType" : 5126,
            "count" : 2594,
            "max" : [
                7.898519039154053,
                69.06172180175781,
                0.2824455797672272
            ],
            "min" : [
                -7.219734191894531,
                -80.58009338378906,
                -13.528327941894531
            ],
            "type" : "VEC3"
        },
        {
            "bufferView" : 17,
            "componentType" : 5126,
            "count" : 2594,
            "max" : [
                1.0,
                1.0,
                1.0
            ],
            "min" : [
                -1.0,
                -1.0,
                -1.0
            ],
            "type" : "VEC3"
        },
        {
            "bufferView" : 18,
            "componentType" : 5126,
            "count" : 2594,
            "max" : [
                0.993432879447937,
                0.9912776695564389
            ],
            "min" : [
                0.008279485628008842,
                0.006869792938232422
            ],
            "type" : "VEC2"
        },
        {
            "bufferView" : 19,
            "componentType" : 5126,
            "count" : 2594,
            "max" : [
                0.0,
                1.0
            ],
            "min" : [
                0.0,
                1.0
            ],
            "type" : "VEC2"
        },
        {
            "bufferView" : 20,
            "componentType" : 5123,
            "count" : 36,
            "max" : [
                23
            ],
            "min" : [
                0
            ],
            "type" : "SCALAR"
        },
        {
            "bufferView" : 21,
            "componentType" : 5126,
            "count" : 24,
            "max" : [
                1.0,
                1.0,
                1.0
            ],
            "min" : [
                -1.0,
                -1.0,
                -1.0
            ],
            "type" : "VEC3"
        },
        {
            "bufferView" : 22,
            "componentType" : 5126,
            "count" : 24,
            "max" : [
                1.0,
                1.0,
                0.0
            ],
            "min" : [
                -1.0,
                -1.0,
                -1.0
            ],
            "type" : "VEC3"
        }
    ],
    "asset" : {
        "generator" : "Khronos Blender glTF 2.0 exporter",
        "version" : "2.0"
    },
    "bufferViews" : [
        {
            "buffer" : 0,
            "byteLength" : 36,
            "byteOffset" : 0,
            "target" : 34963
        },
        {
            "buffer" : 0,
            "byteLength" : 96,
            "byteOffset" : 36,
            "target" : 34962
        },
        {
            "buffer" : 0,
            "byteLength" : 96,
            "byteOffset" : 132,
            "target" : 34962
        },
        {
            "buffer" : 0,
            "byteLength" : 64,
            "byteOffset" : 228,
            "target" : 34962
        },
        {
            "buffer" : 0,
            "byteLength" : 64,
            "byteOffset" : 292,
            "target" : 34962
        },
        {
            "buffer" : 0,
            "byteLength" : 17892,
            "byteOffset" : 356,
            "target" : 34963
        },
        {
            "buffer" : 0,
            "byteLength" : 64680,
            "byteOffset" : 18248,
            "target" : 34962
        },
        {
            "buffer" : 0,
            "byteLength" : 64680,
            "byteOffset" : 82928,
            "target" : 34962
        },
        {
            "buffer" : 0,
            "byteLength" : 43120,
            "byteOffset" : 147608,
            "target" : 34962
        },
        {
            "buffer" : 0,
            "byteLength" : 43120,
            "byteOffset" : 190728,
            "target" : 34962
        },
        {
            "buffer" : 0,
            "byteLength" : 13818,
            "byteOffset" : 233848,
            "target" : 34963
        },
        {
            "buffer" : 0,
            "byteLength" : 44232,
            "byteOffset" : 247668,
            "target" : 34962
        },
        {
            "buffer" : 0,
            "byteLength" : 44232,
            "byteOffset" : 291900,
            "target" : 34962
        },
        {
            "buffer" : 0,
            "byteLength" : 29488,
            "byteOffset" : 336132,
            "target" : 34962
        },
        {
            "buffer" : 0,
            "byteLength" : 29488,
            "byteOffset" : 365620,
            "target" : 34962
        },
        {
            "buffer" : 0,
            "byteLength" : 13608,
            "byteOffset" : 395108,
            "target" : 34963
        },
        {
            "buffer" : 0,
            "byteLength" : 31128,
            "byteOffset" : 408716,
            "target" : 34962
        },
        {
            "buffer" : 0,
            "byteLength" : 31128,
            "byteOffset" : 439844,
            "target" : 34962
        },
        {
            "buffer" : 0,
            "byteLength" : 20752,
            "byteOffset" : 470972,
            "target" : 34962
        },
        {
            "buffer" : 0,
            "byteLength" : 20752,
            "byteOffset" : 491724,
            "target" : 34962
        },
        {
            "buffer" : 0,
            "byteLength" : 72,
            "byteOffset" : 512476,
            "target" : 34963
        },
        {
            "buffer" : 0,
            "byteLength" : 288,
            "byteOffset" : 512548,
            "target" : 34962
        },
        {
            "buffer" : 0,
            "byteLength" : 288,
            "byteOffset" : 512836,
            "target" : 34962
        }
    ],
    "buffers" : [
        {
            "byteLength" : 513124,
            "uri" : "castleWorld.bin"
        }
    ],
    "images" : [
        {
            "name" : "file1",
            "uri" : "file1.jpg"
        },
        {
            "name" : "file4",
            "uri" : "file4.jpg"
        },
        {
            "name" : "file6",
            "uri" : "file6.jpg"
        },
        {
            "name" : "castleBox",
            "uri" : "castleBox.jpg"
        },
        {
            "name" : "file2",
            "uri" : "file2.jpg"
        },
        {
            "name" : "file7",
            "uri" : "file7.jpg"
        },
        {
            "name" : "Ballista_lambert1_BaseColor.tga",
            "uri" : "Ballista_lambert1_BaseColor.tga.png"
        },
        {
            "name" : "Ballista_lambert1_Normal.tga",
            "uri" : "Ballista_lambert1_Normal.tga.png"
        },
        {
            "name" : "Ballista_lambert1_Metallic.tga",
            "uri" : "Ballista_lambert1_Metallic.tga.png"
        },
        {
            "name" : "file3",
            "uri" : "file3.jpg"
        },
        {
            "name" : "file8",
            "uri" : "file8.jpg"
        }
    ],
    "materials" : [
        {
            "name" : "Castle_Exterior_Tex",
            "pbrMetallicRoughness" : {
                "baseColorFactor" : [
                    0.800000011920929,
                    0.800000011920929,
                    0.800000011920929,
                    1.0
                ],
                "baseColorTexture" : {
                    "index" : 0
                },
                "metallicFactor" : 0.0
            }
        },
        {
            "name" : "Castle_Interior_Texture",
            "normalTexture" : {
                "index" : 2
            },
            "pbrMetallicRoughness" : {
                "baseColorFactor" : [
                    0.800000011920929,
                    0.800000011920929,
                    0.800000011920929,
                    1.0
                ],
                "baseColorTexture" : {
                    "index" : 1
                },
                "metallicFactor" : 0.0
            }
        },
        {
            "name" : "castleBox",
            "pbrMetallicRoughness" : {
                "baseColorFactor" : [
                    0.6400000190734865,
                    0.6400000190734865,
                    0.6400000190734865,
                    1.0
                ],
                "baseColorTexture" : {
                    "index" : 3
                },
                "metallicFactor" : 0.0
            }
        },
        {
            "name" : "Ground_and_Fountain_Tex",
            "normalTexture" : {
                "index" : 5
            },
            "pbrMetallicRoughness" : {
                "baseColorFactor" : [
                    0.800000011920929,
                    0.800000011920929,
                    0.800000011920929,
                    1.0
                ],
                "baseColorTexture" : {
                    "index" : 4
                },
                "metallicFactor" : 0.0
            }
        },
        {
            "alphaMode" : "BLEND",
            "name" : "lambert2",
            "pbrMetallicRoughness" : {
                "baseColorFactor" : [
                    0.0835959029733524,
                    0.028068522037096644,
                    0.019542055123180968,
                    0.0
                ],
                "baseColorTexture" : {
                    "index" : 8
                },
                "metallicFactor" : 0.0
            }
        },
        {
            "name" : "Towers_Doors_and_Windows_Tex",
            "normalTexture" : {
                "index" : 10
            },
            "pbrMetallicRoughness" : {
                "baseColorFactor" : [
                    0.800000011920929,
                    0.800000011920929,
                    0.800000011920929,
                    1.0
                ],
                "baseColorTexture" : {
                    "index" : 9
                },
                "metallicFactor" : 0.0
            }
        }
    ],
    "meshes" : [
        {
            "name" : "Untitled.000",
            "primitives" : [
                {
                    "attributes" : {
                        "NORMAL" : 2,
                        "POSITION" : 1,
                        "TEXCOORD_0" : 3,
                        "TEXCOORD_1" : 4
                    },
                    "indices" : 0,
                    "material" : 3
                },
                {
                    "attributes" : {
                        "NORMAL" : 7,
                        "POSITION" : 6,
                        "TEXCOORD_0" : 8,
                        "TEXCOORD_1" : 9
                    },
                    "indices" : 5,
                    "material" : 0
                },
                {
                    "attributes" : {
                        "NORMAL" : 12,
                        "POSITION" : 11,
                        "TEXCOORD_0" : 13,
                        "TEXCOORD_1" : 14
                    },
                    "indices" : 10,
                    "material" : 1
                },
                {
                    "attributes" : {
                        "NORMAL" : 17,
                        "POSITION" : 16,
                        "TEXCOORD_0" : 18,
                        "TEXCOORD_1" : 19
                    },
                    "indices" : 15,
                    "material" : 5
                }
            ]
        },
        {
            "name" : "Cube",
            "primitives" : [
                {
                    "attributes" : {
                        "NORMAL" : 22,
                        "POSITION" : 21
                    },
                    "indices" : 20,
                    "material" : 2
                }
            ]
        }
    ],
    "nodes" : [
        {
            "mesh" : 1,
            "name" : "Cube",
            "scale" : [
                24.25,
                11.0,
                21.5
            ],
            "translation" : [
                0.7297248840332031,
                -1.510554552078247,
                -96.0716552734375
            ]
        },
        {
            "mesh" : 0,
            "name" : "Ground_and_Fountain.000",
            "rotation" : [
                0.7071068286895752,
                0.0,
                -0.0,
                0.7071067094802856
            ],
            "scale" : [
                3.4417831897735596,
                1.2877289056777954,
                3.475546360015869
            ],
            "translation" : [
                -0.6225051879882812,
                0.004102298524230719,
                0.5430736541748047
            ]
        },
        {
            "name" : "Hemi",
            "translation" : [
                25.58087158203125,
                74.9185791015625,
                40.62470245361328
            ]
        }
    ],
    "samplers" : [
        {}
    ],
    "scene" : 0,
    "scenes" : [
        {
            "name" : "Scene",
            "nodes" : [
                0,
                1,
                2
            ]
        }
    ],
    "textures" : [
        {
            "sampler" : 0,
            "source" : 0
        },
        {
            "sampler" : 0,
            "source" : 1
        },
        {
            "sampler" : 0,
            "source" : 2
        },
        {
            "sampler" : 0,
            "source" : 3
        },
        {
            "sampler" : 0,
            "source" : 4
        },
        {
            "sampler" : 0,
            "source" : 5
        },
        {
            "sampler" : 0,
            "source" : 6
        },
        {
            "sampler" : 0,
            "source" : 7
        },
        {
            "sampler" : 0,
            "source" : 8
        },
        {
            "sampler" : 0,
            "source" : 9
        },
        {
            "sampler" : 0,
            "source" : 10
        }
    ]
}
