{
    "accessors" : [
        {
            "bufferView" : 0,
            "componentType" : 5123,
            "count" : 59391,
            "max" : [
                59390
            ],
            "min" : [
                0
            ],
            "type" : "SCALAR"
        },
        {
            "bufferView" : 1,
            "componentType" : 5126,
            "count" : 59391,
            "max" : [
                3.9849586486816406,
                12.337705612182617,
                5.283531665802002
            ],
            "min" : [
                -5.684449195861816,
                2.5373549461364746,
                -5.16441535949707
            ],
            "type" : "VEC3"
        },
        {
            "bufferView" : 2,
            "componentType" : 5126,
            "count" : 59391,
            "max" : [
                0.9804700016975403,
                -0.19174568355083466,
                0.9807107448577881
            ],
            "min" : [
                -0.9806477427482605,
                -0.999678909778595,
                -0.9806343913078308
            ],
            "type" : "VEC3"
        },
        {
            "bufferView" : 3,
            "componentType" : 5126,
            "count" : 59391,
            "max" : [
                0.9997520446777344,
                0.5916151404380798,
                0.9999415874481201,
                1.0
            ],
            "min" : [
                -0.9999661445617676,
                -0.6181790232658386,
                -0.9993475675582886,
                1.0
            ],
            "type" : "VEC4"
        },
        {
            "bufferView" : 4,
            "componentType" : 5126,
            "count" : 59391,
            "max" : [
                1.0,
                1.1410000324249268
            ],
            "min" : [
                -0.01690521463751793,
                -0.06770265102386475
            ],
            "type" : "VEC2"
        },
        {
            "bufferView" : 5,
            "componentType" : 5123,
            "count" : 1395,
            "max" : [
                1394
            ],
            "min" : [
                0
            ],
            "type" : "SCALAR"
        },
        {
            "bufferView" : 6,
            "componentType" : 5126,
            "count" : 1395,
            "max" : [
                0.28476354479789734,
                15.816038131713867,
                0.26127761602401733
            ],
            "min" : [
                -0.4827284812927246,
                -0.015338362194597721,
                -0.3906993269920349
            ],
            "type" : "VEC3"
        },
        {
            "bufferView" : 7,
            "componentType" : 5126,
            "count" : 1395,
            "max" : [
                0.9993355870246887,
                0.20196260511875153,
                0.9999229311943054
            ],
            "min" : [
                -0.9992549419403076,
                -0.1806628257036209,
                -0.9820178151130676
            ],
            "type" : "VEC3"
        },
        {
            "bufferView" : 8,
            "componentType" : 5126,
            "count" : 1395,
            "max" : [
                0.9999979734420776,
                0.1079644113779068,
                0.9991768598556519,
                1.0
            ],
            "min" : [
                -0.9818193316459656,
                -0.11441423743963242,
                -0.9993482828140259,
                1.0
            ],
            "type" : "VEC4"
        },
        {
            "bufferView" : 9,
            "componentType" : 5126,
            "count" : 1395,
            "max" : [
                -0.36265137791633606,
                2.0
            ],
            "min" : [
                -1.0,
                -4.92041540145874
            ],
            "type" : "VEC2"
        },
        {
            "bufferView" : 10,
            "componentType" : 5123,
            "count" : 37077,
            "max" : [
                37076
            ],
            "min" : [
                0
            ],
            "type" : "SCALAR"
        },
        {
            "bufferView" : 11,
            "componentType" : 5126,
            "count" : 37077,
            "max" : [
                3.35309100151062,
                15.243599891662598,
                3.896421432495117
            ],
            "min" : [
                -4.948185920715332,
                2.6628804206848145,
                -4.6957902908325195
            ],
            "type" : "VEC3"
        },
        {
            "bufferView" : 12,
            "componentType" : 5126,
            "count" : 37077,
            "max" : [
                0.99997878074646,
                0.9991202354431152,
                0.9996336102485657
            ],
            "min" : [
                -0.99997878074646,
                -0.9998574256896973,
                -0.9996044635772705
            ],
            "type" : "VEC3"
        },
        {
            "bufferView" : 13,
            "componentType" : 5126,
            "count" : 37077,
            "max" : [
                0.9997169971466064,
                0.9991313219070435,
                0.999809741973877,
                1.0
            ],
            "min" : [
                -0.9997705221176147,
                -0.9996786117553711,
                -0.9997601509094238,
                -1.0
            ],
            "type" : "VEC4"
        },
        {
            "bufferView" : 14,
            "componentType" : 5126,
            "count" : 37077,
            "max" : [
                -0.36265137791633606,
                -2.9431536197662354
            ],
            "min" : [
                -1.0,
                -12.582262992858887
            ],
            "type" : "VEC2"
        },
        {
            "bufferView" : 15,
            "componentType" : 5123,
            "count" : 61608,
            "max" : [
                61607
            ],
            "min" : [
                0
            ],
            "type" : "SCALAR"
        },
        {
            "bufferView" : 16,
            "componentType" : 5126,
            "count" : 61608,
            "max" : [
                3.3965253829956055,
                15.270383834838867,
                4.439654350280762
            ],
            "min" : [
                -4.836086750030518,
                3.229053258895874,
                -4.663980007171631
            ],
            "type" : "VEC3"
        },
        {
            "bufferView" : 17,
            "componentType" : 5126,
            "count" : 61608,
            "max" : [
                0.999940812587738,
                0.9998493194580078,
                0.9999251961708069
            ],
            "min" : [
                -0.9999524354934692,
                -0.9999239444732666,
                -0.9999251961708069
            ],
            "type" : "VEC3"
        },
        {
            "bufferView" : 18,
            "componentType" : 5126,
            "count" : 61608,
            "max" : [
                0.9999861717224121,
                0.9996174573898315,
                0.999870777130127,
                1.0
            ],
            "min" : [
                -0.9999355673789978,
                -0.9996174573898315,
                -0.9997280836105347,
                -1.0
            ],
            "type" : "VEC4"
        },
        {
            "bufferView" : 19,
            "componentType" : 5126,
            "count" : 61608,
            "max" : [
                -0.36265137791633606,
                -0.7187345027923584
            ],
            "min" : [
                -1.0,
                -12.335145950317383
            ],
            "type" : "VEC2"
        },
        {
            "bufferView" : 20,
            "componentType" : 5123,
            "count" : 14475,
            "max" : [
                14474
            ],
            "min" : [
                0
            ],
            "type" : "SCALAR"
        },
        {
            "bufferView" : 21,
            "componentType" : 5126,
            "count" : 14475,
            "max" : [
                2.894263982772827,
                15.28165054321289,
                3.3728585243225098
            ],
            "min" : [
                -3.9166066646575928,
                3.348667860031128,
                -3.289583921432495
            ],
            "type" : "VEC3"
        },
        {
            "bufferView" : 22,
            "componentType" : 5126,
            "count" : 14475,
            "max" : [
                0.9756919145584106,
                0.9941779375076294,
                0.982516884803772
            ],
            "min" : [
                -0.9868983626365662,
                -0.995720386505127,
                -0.9949977397918701
            ],
            "type" : "VEC3"
        },
        {
            "bufferView" : 23,
            "componentType" : 5126,
            "count" : 14475,
            "max" : [
                0.9724177122116089,
                0.9335364699363708,
                0.9970299601554871,
                1.0
            ],
            "min" : [
                -0.9701471328735352,
                -0.9952888488769531,
                -0.9908970594406128,
                -1.0
            ],
            "type" : "VEC4"
        },
        {
            "bufferView" : 24,
            "componentType" : 5126,
            "count" : 14475,
            "max" : [
                -0.36265137791633606,
                1.2585269212722778
            ],
            "min" : [
                -1.0,
                -9.127033233642578
            ],
            "type" : "VEC2"
        },
        {
            "bufferView" : 25,
            "componentType" : 5125,
            "count" : 75099,
            "max" : [
                75098
            ],
            "min" : [
                0
            ],
            "type" : "SCALAR"
        },
        {
            "bufferView" : 26,
            "componentType" : 5126,
            "count" : 75099,
            "max" : [
                4.455916881561279,
                15.648055076599121,
                4.611930847167969
            ],
            "min" : [
                -4.942403316497803,
                7.132013320922852,
                -4.830317974090576
            ],
            "type" : "VEC3"
        },
        {
            "bufferView" : 27,
            "componentType" : 5126,
            "count" : 75099,
            "max" : [
                0.9807009696960449,
                -0.1897333413362503,
                0.9812483191490173
            ],
            "min" : [
                -0.9806773066520691,
                -0.9998034238815308,
                -0.9812008142471313
            ],
            "type" : "VEC3"
        },
        {
            "bufferView" : 28,
            "componentType" : 5126,
            "count" : 75099,
            "max" : [
                0.9999498128890991,
                0.5819932818412781,
                0.9997547268867493,
                1.0
            ],
            "min" : [
                -0.9999024868011475,
                -0.6096265912055969,
                -0.9998809099197388,
                1.0
            ],
            "type" : "VEC4"
        },
        {
            "bufferView" : 29,
            "componentType" : 5126,
            "count" : 75099,
            "max" : [
                1.0,
                1.1410000324249268
            ],
            "min" : [
                -0.01690531149506569,
                -0.06770265102386475
            ],
            "type" : "VEC2"
        }
    ],
    "asset" : {
        "generator" : "Khronos Blender glTF 2.0 exporter",
        "version" : "2.0"
    },
    "bufferViews" : [
        {
            "buffer" : 0,
            "byteLength" : 118782,
            "byteOffset" : 0,
            "target" : 34963
        },
        {
            "buffer" : 0,
            "byteLength" : 712692,
            "byteOffset" : 118784,
            "target" : 34962
        },
        {
            "buffer" : 0,
            "byteLength" : 712692,
            "byteOffset" : 831476,
            "target" : 34962
        },
        {
            "buffer" : 0,
            "byteLength" : 950256,
            "byteOffset" : 1544168,
            "target" : 34962
        },
        {
            "buffer" : 0,
            "byteLength" : 475128,
            "byteOffset" : 2494424,
            "target" : 34962
        },
        {
            "buffer" : 0,
            "byteLength" : 2790,
            "byteOffset" : 2969552,
            "target" : 34963
        },
        {
            "buffer" : 0,
            "byteLength" : 16740,
            "byteOffset" : 2972344,
            "target" : 34962
        },
        {
            "buffer" : 0,
            "byteLength" : 16740,
            "byteOffset" : 2989084,
            "target" : 34962
        },
        {
            "buffer" : 0,
            "byteLength" : 22320,
            "byteOffset" : 3005824,
            "target" : 34962
        },
        {
            "buffer" : 0,
            "byteLength" : 11160,
            "byteOffset" : 3028144,
            "target" : 34962
        },
        {
            "buffer" : 0,
            "byteLength" : 74154,
            "byteOffset" : 3039304,
            "target" : 34963
        },
        {
            "buffer" : 0,
            "byteLength" : 444924,
            "byteOffset" : 3113460,
            "target" : 34962
        },
        {
            "buffer" : 0,
            "byteLength" : 444924,
            "byteOffset" : 3558384,
            "target" : 34962
        },
        {
            "buffer" : 0,
            "byteLength" : 593232,
            "byteOffset" : 4003308,
            "target" : 34962
        },
        {
            "buffer" : 0,
            "byteLength" : 296616,
            "byteOffset" : 4596540,
            "target" : 34962
        },
        {
            "buffer" : 0,
            "byteLength" : 123216,
            "byteOffset" : 4893156,
            "target" : 34963
        },
        {
            "buffer" : 0,
            "byteLength" : 739296,
            "byteOffset" : 5016372,
            "target" : 34962
        },
        {
            "buffer" : 0,
            "byteLength" : 739296,
            "byteOffset" : 5755668,
            "target" : 34962
        },
        {
            "buffer" : 0,
            "byteLength" : 985728,
            "byteOffset" : 6494964,
            "target" : 34962
        },
        {
            "buffer" : 0,
            "byteLength" : 492864,
            "byteOffset" : 7480692,
            "target" : 34962
        },
        {
            "buffer" : 0,
            "byteLength" : 28950,
            "byteOffset" : 7973556,
            "target" : 34963
        },
        {
            "buffer" : 0,
            "byteLength" : 173700,
            "byteOffset" : 8002508,
            "target" : 34962
        },
        {
            "buffer" : 0,
            "byteLength" : 173700,
            "byteOffset" : 8176208,
            "target" : 34962
        },
        {
            "buffer" : 0,
            "byteLength" : 231600,
            "byteOffset" : 8349908,
            "target" : 34962
        },
        {
            "buffer" : 0,
            "byteLength" : 115800,
            "byteOffset" : 8581508,
            "target" : 34962
        },
        {
            "buffer" : 0,
            "byteLength" : 300396,
            "byteOffset" : 8697308,
            "target" : 34963
        },
        {
            "buffer" : 0,
            "byteLength" : 901188,
            "byteOffset" : 8997704,
            "target" : 34962
        },
        {
            "buffer" : 0,
            "byteLength" : 901188,
            "byteOffset" : 9898892,
            "target" : 34962
        },
        {
            "buffer" : 0,
            "byteLength" : 1201584,
            "byteOffset" : 10800080,
            "target" : 34962
        },
        {
            "buffer" : 0,
            "byteLength" : 600792,
            "byteOffset" : 12001664,
            "target" : 34962
        }
    ],
    "buffers" : [
        {
            "byteLength" : 12602456,
            "uri" : "tree1.bin"
        }
    ],
    "images" : [
        {
            "name" : "bark_loo",
            "uri" : "bark_loo.jpg"
        },
        {
            "name" : "bark_loo.jpg",
            "uri" : "bark_loo.jpg.jpg"
        },
        {
            "name" : "blatt1",
            "uri" : "blatt1.jpg"
        },
        {
            "name" : "bark_loo.jpg",
            "uri" : "bark_loo.jpg.jpg"
        },
        {
            "name" : "bark_loo.jpg",
            "uri" : "bark_loo.jpg.jpg"
        },
        {
            "name" : "bark_loo.jpg",
            "uri" : "bark_loo.jpg.jpg"
        },
        {
            "name" : "bark_loo.jpg",
            "uri" : "bark_loo.jpg.jpg"
        },
        {
            "name" : "bark_loo.jpg",
            "uri" : "bark_loo.jpg.jpg"
        },
        {
            "name" : "bark_loo.jpg",
            "uri" : "bark_loo.jpg.jpg"
        }
    ],
    "materials" : [
        {
            "name" : "Material",
            "pbrMetallicRoughness" : {
                "baseColorFactor" : [
                    0.6023529619329118,
                    0.6023529619329118,
                    0.6023529619329118,
                    1.0
                ],
                "metallicFactor" : 0.0
            }
        },
        {
            "name" : "Rinde",
            "normalTexture" : {
                "index" : 1
            },
            "pbrMetallicRoughness" : {
                "baseColorFactor" : [
                    0.19764706190894632,
                    0.18196078810037353,
                    0.18196078810037353,
                    1.0
                ],
                "baseColorTexture" : {
                    "index" : 0
                },
                "metallicFactor" : 0.0
            }
        },
        {
            "name" : "Rinde_Leaf",
            "pbrMetallicRoughness" : {
                "baseColorFactor" : [
                    0.37960785000931985,
                    0.37333334048589073,
                    0.37960785000931985,
                    1.0
                ],
                "baseColorTexture" : {
                    "index" : 2
                },
                "metallicFactor" : 0.0
            }
        },
        {
            "name" : "Rinde_Level1",
            "normalTexture" : {
                "index" : 1
            },
            "pbrMetallicRoughness" : {
                "baseColorFactor" : [
                    0.19764706190894632,
                    0.18196078810037353,
                    0.18196078810037353,
                    1.0
                ],
                "baseColorTexture" : {
                    "index" : 1
                },
                "metallicFactor" : 0.0
            }
        },
        {
            "name" : "Rinde_Level2",
            "normalTexture" : {
                "index" : 1
            },
            "pbrMetallicRoughness" : {
                "baseColorFactor" : [
                    0.19764706190894632,
                    0.18196078810037353,
                    0.18196078810037353,
                    1.0
                ],
                "baseColorTexture" : {
                    "index" : 1
                },
                "metallicFactor" : 0.0
            }
        },
        {
            "name" : "Rinde_Level3",
            "normalTexture" : {
                "index" : 1
            },
            "pbrMetallicRoughness" : {
                "baseColorFactor" : [
                    0.19764706190894632,
                    0.18196078810037353,
                    0.18196078810037353,
                    1.0
                ],
                "baseColorTexture" : {
                    "index" : 1
                },
                "metallicFactor" : 0.0
            }
        }
    ],
    "meshes" : [
        {
            "name" : "sub02",
            "primitives" : [
                {
                    "attributes" : {
                        "NORMAL" : 2,
                        "POSITION" : 1,
                        "TANGENT" : 3,
                        "TEXCOORD_0" : 4
                    },
                    "indices" : 0,
                    "material" : 2
                }
            ]
        },
        {
            "name" : "sub01",
            "primitives" : [
                {
                    "attributes" : {
                        "NORMAL" : 7,
                        "POSITION" : 6,
                        "TANGENT" : 8,
                        "TEXCOORD_0" : 9
                    },
                    "indices" : 5,
                    "material" : 1
                },
                {
                    "attributes" : {
                        "NORMAL" : 12,
                        "POSITION" : 11,
                        "TANGENT" : 13,
                        "TEXCOORD_0" : 14
                    },
                    "indices" : 10,
                    "material" : 5
                },
                {
                    "attributes" : {
                        "NORMAL" : 17,
                        "POSITION" : 16,
                        "TANGENT" : 18,
                        "TEXCOORD_0" : 19
                    },
                    "indices" : 15,
                    "material" : 4
                },
                {
                    "attributes" : {
                        "NORMAL" : 22,
                        "POSITION" : 21,
                        "TANGENT" : 23,
                        "TEXCOORD_0" : 24
                    },
                    "indices" : 20,
                    "material" : 3
                },
                {
                    "attributes" : {
                        "NORMAL" : 27,
                        "POSITION" : 26,
                        "TANGENT" : 28,
                        "TEXCOORD_0" : 29
                    },
                    "indices" : 25,
                    "material" : 2
                }
            ]
        }
    ],
    "nodes" : [
        {
            "children" : [
                1,
                2
            ],
            "name" : "$$$DUMMY.obj0",
            "scale" : [
                0.34087231755256653,
                0.34087231755256653,
                0.34087231755256653
            ]
        },
        {
            "mesh" : 1,
            "name" : "sub01"
        },
        {
            "mesh" : 0,
            "name" : "sub02"
        }
    ],
    "samplers" : [
        {}
    ],
    "scene" : 0,
    "scenes" : [
        {
            "name" : "Scene",
            "nodes" : [
                0
            ]
        }
    ],
    "textures" : [
        {
            "sampler" : 0,
            "source" : 0
        },
        {
            "sampler" : 0,
            "source" : 1
        },
        {
            "sampler" : 0,
            "source" : 2
        },
        {
            "sampler" : 0,
            "source" : 1
        },
        {
            "sampler" : 0,
            "source" : 1
        },
        {
            "sampler" : 0,
            "source" : 1
        },
        {
            "sampler" : 0,
            "source" : 1
        },
        {
            "sampler" : 0,
            "source" : 1
        },
        {
            "sampler" : 0,
            "source" : 1
        }
    ]
}
