{
    "accessors" : [
        {
            "bufferView" : 0,
            "componentType" : 5123,
            "count" : 1278,
            "max" : [
                913
            ],
            "min" : [
                0
            ],
            "type" : "SCALAR"
        },
        {
            "bufferView" : 1,
            "componentType" : 5126,
            "count" : 914,
            "max" : [
                1.2230474948883057,
                2.3020670413970947,
                0.3930231034755707
            ],
            "min" : [
                -1.8396042585372925,
                -1.862645149230957e-09,
                -0.3930231034755707
            ],
            "type" : "VEC3"
        },
        {
            "bufferView" : 2,
            "componentType" : 5126,
            "count" : 914,
            "max" : [
                0.9981213808059692,
                0.9967505931854248,
                0.9999478459358215
            ],
            "min" : [
                -0.9990602135658264,
                -1.0,
                -0.9999478459358215
            ],
            "type" : "VEC3"
        },
        {
            "bufferView" : 3,
            "componentType" : 5126,
            "count" : 914,
            "max" : [
                1.0,
                0.9499194622039795,
                1.0,
                1.0
            ],
            "min" : [
                -0.9975208044052124,
                -0.9365634918212891,
                -1.0,
                -1.0
            ],
            "type" : "VEC4"
        },
        {
            "bufferView" : 4,
            "componentType" : 5126,
            "count" : 914,
            "max" : [
                0.838747501373291,
                0.8612487316131592
            ],
            "min" : [
                0.05717932805418968,
                0.09437716007232666
            ],
            "type" : "VEC2"
        }
    ],
    "asset" : {
        "generator" : "Khronos Blender glTF 2.0 exporter",
        "version" : "2.0"
    },
    "bufferViews" : [
        {
            "buffer" : 0,
            "byteLength" : 2556,
            "byteOffset" : 0,
            "target" : 34963
        },
        {
            "buffer" : 0,
            "byteLength" : 10968,
            "byteOffset" : 2556,
            "target" : 34962
        },
        {
            "buffer" : 0,
            "byteLength" : 10968,
            "byteOffset" : 13524,
            "target" : 34962
        },
        {
            "buffer" : 0,
            "byteLength" : 14624,
            "byteOffset" : 24492,
            "target" : 34962
        },
        {
            "buffer" : 0,
            "byteLength" : 7312,
            "byteOffset" : 39116,
            "target" : 34962
        }
    ],
    "buffers" : [
        {
            "byteLength" : 46428,
            "uri" : "horse.bin"
        }
    ],
    "extensionsUsed" : [
        "KHR_materials_unlit"
    ],
    "images" : [
        {
            "name" : "wizardTowerDiff",
            "uri" : "wizardTowerDiff.png"
        }
    ],
    "materials" : [
        {
            "extensions" : {
                "KHR_materials_unlit" : {}
            },
            "name" : "color",
            "pbrMetallicRoughness" : {
                "baseColorFactor" : [
                    0.6400000190734865,
                    0.6400000190734865,
                    0.6400000190734865,
                    1.0
                ],
                "baseColorTexture" : {
                    "index" : 0
                },
                "metallicFactor" : 0.0,
                "roughnessFactor" : 0.9
            }
        }
    ],
    "meshes" : [
        {
            "name" : "horse",
            "primitives" : [
                {
                    "attributes" : {
                        "NORMAL" : 2,
                        "POSITION" : 1,
                        "TANGENT" : 3,
                        "TEXCOORD_0" : 4
                    },
                    "indices" : 0,
                    "material" : 0
                }
            ]
        }
    ],
    "nodes" : [
        {
            "name" : "Hemi",
            "rotation" : [
                0.363911509513855,
                -0.10108350217342377,
                0.1761476844549179,
                0.9090229868888855
            ],
            "scale" : [
                0.9999999403953552,
                0.9999999403953552,
                1.0
            ],
            "translation" : [
                0.3671983778476715,
                3.5768556594848633,
                1.2939910888671875
            ]
        },
        {
            "name" : "Hemi.001",
            "rotation" : [
                -0.10189005732536316,
                -0.08497241139411926,
                -0.6928938627243042,
                0.7087286114692688
            ],
            "scale" : [
                0.9999999403953552,
                1.0,
                0.9999999403953552
            ],
            "translation" : [
                0.3671983778476715,
                3.5768556594848633,
                1.2939910888671875
            ]
        },
        {
            "mesh" : 0,
            "name" : "horse"
        }
    ],
    "samplers" : [
        {}
    ],
    "scene" : 0,
    "scenes" : [
        {
            "name" : "Scene",
            "nodes" : [
                1,
                0,
                2
            ]
        }
    ],
    "textures" : [
        {
            "sampler" : 0,
            "source" : 0
        }
    ]
}
